<svg aria-hidden="true" style="position: absolute; width: 0; height: 0; overflow: hidden;" version="1.1" xmlns="http://www.w3.org/2000/svg" xmlns:xlink="http://www.w3.org/1999/xlink">
<defs>
<symbol id="icon-Menu" viewBox="0 0 32 32">
<path fill="none" stroke="#fff" style="stroke: var(--color1, #fff)" stroke-linejoin="round" stroke-linecap="round" stroke-miterlimit="4" stroke-width="2.2857" d="M5.333 8h21.333"></path>
<path fill="none" stroke="#fff" style="stroke: var(--color1, #fff)" stroke-linejoin="round" stroke-linecap="round" stroke-miterlimit="4" stroke-width="2.2857" d="M5.333 16h21.333"></path>
<path fill="none" stroke="#fff" style="stroke: var(--color1, #fff)" stroke-linejoin="round" stroke-linecap="round" stroke-miterlimit="4" stroke-width="2.2857" d="M5.333 24h21.333"></path>
</symbol>
<symbol id="icon-House" viewBox="0 0 32 32">
<path fill="none" stroke-linejoin="round" stroke-linecap="round" stroke-miterlimit="4" stroke-width="1.6" d="M6.667 16h-2.667l12-12 12 12h-2.667"></path>
<path fill="none" stroke-linejoin="round" stroke-linecap="round" stroke-miterlimit="4" stroke-width="1.6" d="M6.667 16v9.333c0 0.707 0.281 1.386 0.781 1.886s1.178 0.781 1.886 0.781h13.333c0.707 0 1.386-0.281 1.886-0.781s0.781-1.178 0.781-1.886v-9.333"></path>
<path fill="none" stroke-linejoin="round" stroke-linecap="round" stroke-miterlimit="4" stroke-width="1.6" d="M12 28v-8c0-0.707 0.281-1.386 0.781-1.886s1.178-0.781 1.886-0.781h2.667c0.707 0 1.386 0.281 1.886 0.781s0.781 1.178 0.781 1.886v8"></path>
</symbol>
<symbol id="icon-Human" viewBox="0 0 32 32">
<path fill="none" stroke-linejoin="miter" stroke-linecap="butt" stroke-miterlimit="10" stroke-width="1.6" d="M16 20c4.418 0 8-3.582 8-8s-3.582-8-8-8c-4.418 0-8 3.582-8 8s3.582 8 8 8z"></path>
<path fill="none" stroke-linejoin="round" stroke-linecap="round" stroke-miterlimit="4" stroke-width="1.6" d="M3.874 26.999c1.229-2.128 2.997-3.895 5.126-5.124s4.543-1.875 7.001-1.875c2.458 0 4.872 0.647 7.001 1.875s3.896 2.996 5.126 5.124"></path>
</symbol>
<symbol id="icon-People" viewBox="0 0 32 32">
<path fill="none" stroke-linejoin="miter" stroke-linecap="round" stroke-miterlimit="4" stroke-width="1.6" d="M26.8 18.581c1.901 1.45 3.6 5.101 3.6 7.35 0 0.701-0.501 1.269-1.119 1.269h-0.681M21.4 12.638c1.23-0.726 2.057-2.084 2.057-3.638s-0.827-2.912-2.057-3.638M2.719 27.2h19.706c0.618 0 1.119-0.568 1.119-1.269 0-4.405-3.605-7.976-10.971-7.976s-10.971 3.571-10.971 7.976c0 0.701 0.501 1.269 1.119 1.269zM16.686 9c0 2.32-1.842 4.2-4.114 4.2s-4.114-1.88-4.114-4.2c0-2.32 1.842-4.2 4.114-4.2s4.114 1.88 4.114 4.2z"></path>
</symbol>
<symbol id="icon-Copybook" viewBox="0 0 32 32">
<path fill="none" stroke-linejoin="round" stroke-linecap="round" stroke-miterlimit="4" stroke-width="1.6842" d="M12.211 18.842h7.579"></path>
<path fill="none" stroke-linejoin="round" stroke-linecap="round" stroke-miterlimit="4" stroke-width="1.6842" d="M12.211 15.053h7.579"></path>
<path fill="none" stroke-linejoin="round" stroke-linecap="round" stroke-miterlimit="4" stroke-width="1.6842" d="M19.79 5.579h4.737c0.251 0 0.492 0.1 0.67 0.277s0.278 0.419 0.278 0.67v19.895c0 0.251-0.1 0.492-0.278 0.67s-0.419 0.278-0.67 0.278h-17.053c-0.251 0-0.492-0.1-0.67-0.278s-0.277-0.419-0.277-0.67v-19.895c0-0.251 0.1-0.492 0.277-0.67s0.419-0.277 0.67-0.277h4.737"></path>
<path fill="none" stroke-linejoin="round" stroke-linecap="round" stroke-miterlimit="4" stroke-width="1.6842" d="M11.263 9.368v-0.947c0-1.256 0.499-2.461 1.387-3.349s2.093-1.387 3.349-1.387c1.256 0 2.461 0.499 3.349 1.387s1.387 2.093 1.387 3.349v0.947h-9.474z"></path>
</symbol>
<symbol id="icon-Profile" viewBox="0 0 32 32">
<path fill="none" stroke-linejoin="miter" stroke-linecap="butt" stroke-miterlimit="4" stroke-width="1.6842" d="M7.663 25.095c0.583-0.652 3.311-3.655 4.11-3.655h8.454c1.159 0 3.524 2.489 4.11 3.366M28.126 16c0 6.697-5.429 12.126-12.126 12.126s-12.126-5.429-12.126-12.126c0-6.697 5.429-12.126 12.126-12.126s12.126 5.429 12.126 12.126zM20.344 11.867c0-2.313-1.953-4.204-4.343-4.204s-4.343 1.89-4.343 4.204 1.953 4.204 4.343 4.204c2.39 0 4.343-1.89 4.343-4.204z"></path>
</symbol>
<symbol id="icon-Card" viewBox="0 0 32 32">
<path fill="none" stroke-linejoin="round" stroke-linecap="round" stroke-miterlimit="4" stroke-width="2" d="M28 7h-24c-0.552 0-1 0.448-1 1v16c0 0.552 0.448 1 1 1h24c0.552 0 1-0.448 1-1v-16c0-0.552-0.448-1-1-1z"></path>
<path fill="none" stroke-linejoin="round" stroke-linecap="round" stroke-miterlimit="4" stroke-width="2" d="M20.999 21h4"></path>
<path fill="none" stroke-linejoin="round" stroke-linecap="round" stroke-miterlimit="4" stroke-width="2" d="M14.999 21h2"></path>
<path fill="none" stroke-linejoin="round" stroke-linecap="round" stroke-miterlimit="4" stroke-width="2" d="M2.999 12.107h26"></path>
</symbol>
<symbol id="icon-Support" viewBox="0 0 32 32">
<path fill="none" stroke-linejoin="round" stroke-linecap="round" stroke-miterlimit="4" stroke-width="1.6" d="M6.808 25.192c-1.151-1.15-0.387-3.566-0.973-4.981-0.607-1.467-2.835-2.648-2.835-4.211s2.228-2.744 2.835-4.211c0.586-1.415-0.178-3.831 0.973-4.981s3.566-0.387 4.981-0.973c1.467-0.607 2.648-2.835 4.211-2.835s2.744 2.228 4.211 2.835c1.415 0.586 3.831-0.178 4.981 0.973s0.388 3.566 0.973 4.981c0.607 1.467 2.835 2.648 2.835 4.211s-2.228 2.744-2.835 4.211c-0.586 1.415 0.177 3.831-0.973 4.981s-3.566 0.388-4.981 0.973c-1.467 0.607-2.648 2.835-4.211 2.835s-2.744-2.228-4.211-2.835c-1.415-0.586-3.831 0.177-4.981-0.973z"></path>
<path fill="none" d="M16 24c0.828 0 1.5-0.672 1.5-1.5s-0.672-1.5-1.5-1.5c-0.828 0-1.5 0.672-1.5 1.5s0.672 1.5 1.5 1.5z"></path>
<path fill="none" stroke-linejoin="round" stroke-linecap="round" stroke-miterlimit="4" stroke-width="1.6" d="M16 18.001v-1c0.692 0 1.369-0.205 1.944-0.59s1.024-0.931 1.289-1.571c0.265-0.64 0.334-1.343 0.199-2.022s-0.468-1.303-0.958-1.792c-0.489-0.489-1.113-0.823-1.792-0.958s-1.383-0.066-2.022 0.199-1.186 0.713-1.571 1.289c-0.385 0.576-0.59 1.252-0.59 1.944"></path>
</symbol>
<symbol id="icon-arrow-right" viewBox="0 0 7 32">
<path stroke-linejoin="round" stroke-linecap="round" stroke-miterlimit="4" stroke-width="1" d="M1 31.276l5-14.906-5-14.906"></path>
</symbol>
<symbol id="icon-arrow-left" viewBox="0 0 7 32">
<path stroke-linejoin="round" stroke-linecap="round" stroke-miterlimit="4" stroke-width="1" d="M6 1.464l-5 14.906 5 14.906"></path>
</symbol>
<symbol id="icon-Copy" viewBox="0 0 32 32">
<path fill="none" opacity="0.5" stroke="#fff" style="stroke: var(--color1, #fff)" stroke-linejoin="round" stroke-linecap="round" stroke-miterlimit="4" stroke-width="2" d="M21 20.999h6v-16h-16v6"></path>
<path fill="none" opacity="0.5" stroke="#fff" style="stroke: var(--color1, #fff)" stroke-linejoin="round" stroke-linecap="round" stroke-miterlimit="4" stroke-width="2" d="M21 10.999h-16v16h16v-16z"></path>
</symbol>
<symbol id="icon-Other" viewBox="0 0 32 32">
<path fill="#fff" style="fill: var(--color1, #fff)" d="M8 14c-1.105 0-2 0.895-2 2s0.895 2 2 2c1.105 0 2-0.895 2-2s-0.895-2-2-2z"></path>
<path fill="#fff" style="fill: var(--color1, #fff)" d="M14 16c0-1.105 0.895-2 2-2s2 0.895 2 2c0 1.105-0.895 2-2 2s-2-0.895-2-2z"></path>
<path fill="#fff" style="fill: var(--color1, #fff)" d="M22 16c0-1.105 0.895-2 2-2s2 0.895 2 2c0 1.105-0.895 2-2 2s-2-0.895-2-2z"></path>
</symbol>
<symbol id="icon-question" viewBox="0 0 32 32">
<path fill="none" stroke="#fff" style="stroke: var(--color1, #fff)" stroke-linejoin="round" stroke-linecap="round" stroke-miterlimit="4" stroke-width="3.2" d="M16 30.4c7.953 0 14.4-6.447 14.4-14.4s-6.447-14.4-14.4-14.4c-7.953 0-14.4 6.447-14.4 14.4s6.447 14.4 14.4 14.4z"></path>
<path fill="#fff" style="fill: var(--color1, #fff)" d="M16 22.4c0.884 0 1.6 0.712 1.6 1.589v0.021c0 0.878-0.716 1.589-1.6 1.589s-1.6-0.712-1.6-1.589v-0.021c0-0.878 0.716-1.589 1.6-1.589z"></path>
<path fill="none" stroke="#fff" style="stroke: var(--color1, #fff)" stroke-linejoin="round" stroke-linecap="round" stroke-miterlimit="4" stroke-width="3.2" d="M16.225 19.2c-0.032-0.557 0.118-1.109 0.427-1.573s0.76-0.815 1.285-1c0.644-0.247 1.221-0.64 1.688-1.148s0.809-1.118 1-1.781c0.191-0.663 0.226-1.362 0.102-2.041s-0.404-1.32-0.818-1.872c-0.413-0.552-0.949-1.001-1.565-1.31s-1.295-0.472-1.984-0.474c-0.689-0.002-1.369 0.156-1.987 0.463s-1.156 0.752-1.573 1.302"></path>
</symbol>
<symbol id="icon-settings" viewBox="0 0 32 32">
<path d="M31.999 18.586c-0.035 0.132-0.058 0.269-0.107 0.396-0.065 0.171-0.201 0.255-0.386 0.258-0.539 0.011-1.078 0.030-1.617 0.036-0.592 0.006-1.185 0.004-1.778-0.001-0.112-0.001-0.169 0.028-0.206 0.143-0.273 0.839-0.591 1.66-1.010 2.439-0.086 0.159-0.077 0.276 0.053 0.409 0.548 0.562 1.091 1.13 1.63 1.701 0.242 0.256 0.477 0.519 0.705 0.789 0.171 0.203 0.172 0.24-0.010 0.434-0.558 0.598-1.113 1.198-1.689 1.778-0.734 0.739-1.484 1.462-2.235 2.185-0.347 0.334-0.429 0.336-0.789 0.006-0.464-0.426-0.912-0.87-1.364-1.309-0.326-0.317-0.649-0.636-0.969-0.958-0.066-0.066-0.116-0.077-0.205-0.040-0.871 0.36-1.746 0.713-2.617 1.074-0.047 0.019-0.1 0.096-0.1 0.146-0.006 0.861 0.002 1.722-0.008 2.583-0.004 0.309-0.030 0.62-0.074 0.925-0.037 0.258-0.152 0.359-0.407 0.365-1.072 0.025-2.145 0.054-3.217 0.056-0.805 0.002-1.611-0.030-2.417-0.056-0.251-0.008-0.378-0.129-0.411-0.383-0.034-0.265-0.058-0.532-0.061-0.799-0.011-0.882-0.012-1.765-0.010-2.648 0-0.123-0.041-0.169-0.152-0.213-0.844-0.341-1.686-0.689-2.525-1.044-0.105-0.045-0.163-0.041-0.245 0.039-0.748 0.733-1.5 1.462-2.253 2.189-0.092 0.089-0.199 0.162-0.3 0.24-0.122 0.094-0.247 0.095-0.364-0.007-0.213-0.186-0.436-0.363-0.635-0.563-1.127-1.132-2.252-2.266-3.37-3.407-0.35-0.358-0.353-0.446-0.008-0.815 0.661-0.706 1.34-1.395 2.011-2.091 0.082-0.084 0.157-0.176 0.246-0.253 0.081-0.070 0.071-0.129 0.033-0.22-0.356-0.852-0.708-1.705-1.053-2.561-0.041-0.102-0.083-0.134-0.193-0.135-1.057-0.008-2.113-0.022-3.17-0.037-0.106-0.002-0.213-0.017-0.317-0.040-0.232-0.049-0.341-0.169-0.351-0.409-0.025-0.593-0.055-1.186-0.056-1.78-0-1.187 0.014-2.375 0.033-3.562 0.003-0.181 0.041-0.372 0.11-0.538 0.079-0.19 0.277-0.213 0.465-0.215 1.083-0.012 2.167-0.027 3.25-0.030 0.158-0 0.217-0.052 0.262-0.198 0.262-0.855 0.613-1.674 1.018-2.47 0.058-0.113 0.052-0.179-0.041-0.273-0.738-0.75-1.477-1.5-2.199-2.266-0.409-0.434-0.402-0.483 0.008-0.922 1.245-1.331 2.523-2.629 3.872-3.855 0.218-0.198 0.27-0.206 0.488-0.006 0.534 0.492 1.054 0.999 1.581 1.499 0.306 0.29 0.616 0.577 0.92 0.87 0.087 0.084 0.165 0.087 0.269 0.033 0.821-0.424 1.672-0.779 2.557-1.048 0.109-0.033 0.106-0.097 0.106-0.18 0.002-0.872 0.001-1.744 0.011-2.616 0.003-0.282 0.025-0.566 0.060-0.847 0.035-0.286 0.12-0.345 0.411-0.354 0.229-0.007 0.457-0.021 0.686-0.032 1.719 0 3.438 0 5.158 0 0.078 0.138 0.185 0.267 0.227 0.415 0.047 0.166 0.047 0.349 0.048 0.525 0.004 0.968 0.005 1.936 0.001 2.904-0 0.111 0.036 0.16 0.139 0.193 0.879 0.286 1.722 0.66 2.545 1.077 0.125 0.063 0.193 0.043 0.286-0.048 0.77-0.755 1.54-1.511 2.322-2.254 0.385-0.366 0.41-0.363 0.788 0.004 1.003 0.975 2.004 1.954 2.995 2.941 0.325 0.324 0.625 0.673 0.926 1.020 0.153 0.176 0.15 0.253 0.007 0.44-0.126 0.165-0.259 0.327-0.404 0.476-0.663 0.681-1.331 1.359-2.002 2.032-0.093 0.093-0.098 0.16-0.044 0.275 0.394 0.829 0.79 1.659 1.054 2.542 0.035 0.115 0.106 0.113 0.193 0.114 0.795 0.009 1.59 0.015 2.385 0.030 0.357 0.007 0.714 0.022 1.070 0.051 0.241 0.020 0.407 0.225 0.412 0.462 0.007 0.373 0.018 0.747 0.028 1.12 0 1.423 0 2.846 0 4.27l-0.001-0.001zM7.066 3.759c-1.101 1.097-2.162 2.154-3.234 3.221 0.049 0.045 0.098 0.085 0.143 0.131 0.663 0.674 1.334 1.342 1.987 2.026 0.444 0.465 0.421 0.511 0.132 1.086-0.303 0.605-0.583 1.223-0.843 1.849-0.151 0.363-0.247 0.749-0.359 1.128-0.074 0.251-0.232 0.389-0.49 0.41-0.165 0.013-0.33 0.030-0.495 0.031-0.886 0.004-1.773 0.002-2.659 0.003-0.061 0-0.123 0-0.184 0v4.568c0.046 0.005 0.082 0.012 0.118 0.012 0.497 0.001 0.993-0.004 1.49 0.003 0.576 0.008 1.152 0.027 1.729 0.039 0.21 0.005 0.355 0.102 0.428 0.3 0.046 0.125 0.095 0.25 0.131 0.378 0.286 1.012 0.667 1.983 1.2 2.892 0.048 0.082 0.079 0.175 0.121 0.261 0.054 0.108 0.041 0.206-0.037 0.297-0.165 0.189-0.322 0.386-0.496 0.567-0.588 0.614-1.178 1.225-1.774 1.831-0.114 0.116-0.119 0.201 0.004 0.299 0.021 0.017 0.037 0.038 0.056 0.057 0.96 0.975 1.92 1.95 2.879 2.924 0.032 0.033 0.068 0.061 0.133 0.117 0.599-0.613 1.186-1.221 1.782-1.818 0.218-0.219 0.459-0.415 0.693-0.618 0.102-0.089 0.221-0.102 0.344-0.044 0.231 0.109 0.461 0.221 0.694 0.329 0.493 0.228 0.979 0.474 1.483 0.677 0.389 0.156 0.8 0.26 1.201 0.384 0.235 0.073 0.386 0.22 0.426 0.468 0.018 0.111 0.034 0.223 0.037 0.334 0.020 0.952 0.037 1.904 0.054 2.856 0.001 0.058 0.006 0.115 0.009 0.18h4.485c0-0.106-0.001-0.201 0-0.296 0.012-0.957 0.017-1.915 0.038-2.872 0.011-0.481 0.078-0.557 0.53-0.681 0.919-0.251 1.8-0.595 2.641-1.045 0.221-0.118 0.447-0.226 0.672-0.335 0.121-0.058 0.24-0.045 0.345 0.040 0.145 0.118 0.296 0.23 0.429 0.36 0.656 0.644 1.307 1.293 1.96 1.94 0.040 0.040 0.081 0.078 0.124 0.118 1.065-1.067 2.117-2.122 3.201-3.208-0.058-0.043-0.115-0.075-0.159-0.12-0.701-0.72-1.396-1.445-2.101-2.161-0.241-0.245-0.31-0.495-0.117-0.799 0.077-0.121 0.136-0.254 0.197-0.385 0.227-0.477 0.475-0.946 0.669-1.436 0.188-0.475 0.324-0.971 0.473-1.46 0.055-0.182 0.162-0.284 0.347-0.303 0.228-0.023 0.456-0.055 0.685-0.058 0.86-0.009 1.719-0.009 2.579-0.012 0.056 0 0.112 0 0.167 0v-4.581c-0.076 0-0.14 0-0.203 0-0.935-0.002-1.869 0.003-2.803-0.009-0.655-0.008-0.686-0.024-0.856-0.603-0.3-1.025-0.697-2.004-1.221-2.935-0.244-0.433-0.224-0.475 0.092-0.849 0.034-0.041 0.069-0.082 0.107-0.12 0.667-0.679 1.333-1.358 2.002-2.034 0.044-0.044 0.109-0.066 0.148-0.088-1.1-1.102-2.155-2.159-3.213-3.219-0.025 0.023-0.053 0.048-0.079 0.074-0.582 0.575-1.161 1.152-1.747 1.722-0.202 0.197-0.42 0.38-0.632 0.567-0.133 0.117-0.278 0.145-0.442 0.059-0.118-0.061-0.242-0.112-0.363-0.168-0.613-0.286-1.22-0.588-1.842-0.851-0.351-0.148-0.729-0.237-1.097-0.344-0.296-0.086-0.459-0.278-0.49-0.582-0.016-0.165-0.034-0.33-0.034-0.496-0.004-0.867-0.003-1.733-0.004-2.6 0-0.056 0-0.112 0-0.168h-4.485c-0.004 0.066-0.008 0.123-0.010 0.18-0.018 0.984-0.043 1.968-0.049 2.952-0.002 0.343-0.109 0.578-0.459 0.666-0.077 0.019-0.149 0.057-0.224 0.085-0.579 0.214-1.165 0.411-1.735 0.647-0.492 0.204-0.967 0.451-1.446 0.684-0.134 0.065-0.243 0.049-0.35-0.048-0.244-0.223-0.501-0.434-0.734-0.669-0.573-0.576-1.136-1.161-1.695-1.736l0 0.001z"></path>
<path d="M16.070 24.607c-4.689 0.224-8.688-3.91-8.671-8.252-0.301-5.116 4.1-8.956 8.45-8.97 4.856-0.015 8.781 3.823 8.766 8.641-0.017 5.161-4.337 8.728-8.546 8.581v0zM12.988 22.969c3.002 1.368 7.040 0.532 9.234-2.639 2.284-3.301 1.648-7.7-1.497-10.225-3.052-2.45-7.444-2.228-10.224 0.684-1.367 1.432-2.067 3.164-2.1 5.146-0.017 1.039 0.205 2.041 0.6 3.035 0.089-0.072 0.149-0.113 0.2-0.163 0.605-0.587 1.191-1.194 1.819-1.754 0.336-0.299 0.512-0.614 0.435-1.060-0.009-0.054-0.002-0.112-0-0.168 0.046-1.636 0.712-2.98 1.969-4.009 1.188-0.972 2.566-1.357 4.093-1.156 0.233 0.031 0.474 0.111 0.679 0.224 0.272 0.15 0.292 0.43 0.089 0.659-0.119 0.135-0.24 0.268-0.365 0.397-0.768 0.797-1.535 1.594-2.308 2.387-0.115 0.118-0.15 0.225-0.089 0.386 0.158 0.414 0.295 0.836 0.451 1.25 0.023 0.062 0.093 0.127 0.156 0.151 0.425 0.158 0.857 0.302 1.282 0.46 0.113 0.042 0.182 0.018 0.263-0.064 0.676-0.674 1.354-1.347 2.037-2.015 0.261-0.255 0.527-0.506 0.808-0.738 0.213-0.177 0.45-0.144 0.615 0.081 0.097 0.132 0.171 0.292 0.215 0.451 0.146 0.534 0.132 1.081 0.062 1.623-0.155 1.206-0.68 2.235-1.536 3.095-0.789 0.793-1.706 1.354-2.834 1.494-0.489 0.060-0.985 0.066-1.477 0.107-0.086 0.007-0.189 0.045-0.249 0.104-0.702 0.696-1.397 1.4-2.096 2.099-0.059 0.059-0.14 0.095-0.235 0.157v-0.001zM16.724 11.685c-0.007-0.013-0.013-0.027-0.020-0.040-0.212 0.020-0.426 0.027-0.635 0.063-0.742 0.128-1.39 0.468-1.973 0.932-0.92 0.731-1.454 1.683-1.539 2.862-0.032 0.436-0.009 0.876-0.029 1.313-0.005 0.106-0.053 0.234-0.124 0.31-0.564 0.603-1.14 1.194-1.708 1.794-0.317 0.334-0.622 0.679-0.935 1.016-0.096 0.103-0.093 0.19-0.010 0.306 0.598 0.843 1.32 1.557 2.18 2.131 0.116 0.077 0.179 0.076 0.28-0.025 0.919-0.924 1.844-1.843 2.771-2.758 0.056-0.055 0.152-0.097 0.229-0.097 0.23-0.001 0.46 0.024 0.689 0.036 0.939 0.051 1.806-0.175 2.58-0.71 1.054-0.73 1.683-1.737 1.905-2.999 0.018-0.106 0.026-0.213 0.040-0.319-0.021-0.013-0.042-0.026-0.062-0.040-0.133 0.112-0.273 0.217-0.399 0.337-0.623 0.592-1.245 1.185-1.861 1.784-0.16 0.156-0.334 0.2-0.537 0.127-0.733-0.263-1.466-0.524-2.194-0.803-0.098-0.037-0.193-0.158-0.233-0.262-0.27-0.707-0.521-1.421-0.786-2.129-0.072-0.193-0.037-0.337 0.106-0.484 0.718-0.735 1.43-1.477 2.144-2.216 0.041-0.043 0.082-0.086 0.122-0.13v0.001z"></path>
</symbol>
<symbol id="icon-bin" viewBox="0 0 29 32">
<path fill="none" stroke="#e84646" style="stroke: var(--color1, #e84646)" stroke-linejoin="miter" stroke-linecap="butt" stroke-miterlimit="4" stroke-width="2.7826" d="M26.435 18.087c0 6.916-5.606 12.522-12.522 12.522s-12.522-5.606-12.522-12.522c0-6.916 5.606-12.522 12.522-12.522s12.522 5.606 12.522 12.522z"></path>
<path fill="none" stroke="#e84646" style="stroke: var(--color1, #e84646)" stroke-linejoin="miter" stroke-linecap="round" stroke-miterlimit="4" stroke-width="2.3652" d="M10.079 15.304v6.435c0 1.056 0.856 1.913 1.913 1.913h3.843c1.056 0 1.913-0.856 1.913-1.913v-6.435M8.348 15.304h11.13"></path>
<path fill="none" stroke="#e84646" style="stroke: var(--color1, #e84646)" stroke-linejoin="miter" stroke-linecap="round" stroke-miterlimit="4" stroke-width="2.3652" d="M11.13 13.913v0c0-0.768 0.623-1.391 1.391-1.391h2.783c0.768 0 1.391 0.623 1.391 1.391v0"></path>
</symbol>
<symbol id="icon-search" viewBox="0 0 34 32">
<path fill="none" stroke="#fff" style="stroke: var(--color1, #fff)" stroke-linejoin="miter" stroke-linecap="round" stroke-miterlimit="4" stroke-width="2" d="M25.798 25l6.202 6M15.929 7.429c3.55 0 6.429 2.878 6.429 6.429M30 15c0 7.732-6.268 14-14 14s-14-6.268-14-14c0-7.732 6.268-14 14-14s14 6.268 14 14z"></path>
</symbol>
<symbol id="icon-vector" viewBox="0 0 56 32">
<path fill="none" stroke="#fff" style="stroke: var(--color1, #fff)" stroke-linejoin="miter" stroke-linecap="round" stroke-miterlimit="4" stroke-width="8" d="M4 4l21.172 21.172c1.562 1.562 4.095 1.562 5.657 0l21.172-21.172"></path>
</symbol>
<symbol id="icon-vector-black" viewBox="0 0 56 32">
<path fill="none" stroke="#000" style="stroke: var(--color1, #000)" stroke-linejoin="miter" stroke-linecap="round" stroke-miterlimit="4" stroke-width="8" d="M4 4l21.172 21.172c1.562 1.562 4.095 1.562 5.657 0l21.172-21.172"></path>
</symbol>
<symbol id="icon-rubish-bin" viewBox="0 0 26 32">
<path fill="#e84646" style="fill: var(--color1, #e84646)" d="M12.636 31.523c-2.119 0-4.238-0.006-6.358 0.002-1.126 0.004-2.173-0.762-2.478-2.030-0.088-0.367-0.1-0.755-0.141-1.134-0.068-0.623-0.135-1.246-0.196-1.869-0.081-0.828-0.153-1.657-0.235-2.484-0.081-0.811-0.172-1.62-0.255-2.431-0.049-0.482-0.088-0.965-0.136-1.446-0.061-0.612-0.131-1.223-0.191-1.836-0.061-0.624-0.112-1.248-0.173-1.872-0.047-0.471-0.107-0.94-0.155-1.41-0.049-0.482-0.089-0.964-0.136-1.447-0.074-0.754-0.154-1.507-0.226-2.262-0.010-0.102-0.045-0.138-0.14-0.14-0.818-0.022-1.47-0.69-1.47-1.671 0.001-1.034-0.009-2.069 0.004-3.103 0.008-0.645 0.269-1.154 0.833-1.462 0.237-0.129 0.494-0.172 0.759-0.172 1.89 0 3.779-0.002 5.669 0.003 0.125 0 0.196-0.040 0.262-0.149 0.462-0.766 0.926-1.531 1.396-2.291 0.317-0.512 0.779-0.778 1.357-0.783 1.322-0.011 2.643-0.012 3.965 0 0.565 0.005 1.032 0.233 1.352 0.751 0.476 0.771 0.965 1.534 1.446 2.302 0.073 0.118 0.152 0.172 0.299 0.171 1.884-0.007 3.769-0.005 5.653-0.004 0.394 0 0.755 0.106 1.056 0.381 0.332 0.304 0.515 0.689 0.517 1.154 0.004 1.12 0.004 2.24 0 3.36-0.003 0.784-0.626 1.47-1.377 1.504-0.172 0.008-0.214 0.068-0.228 0.237-0.054 0.63-0.127 1.258-0.191 1.887-0.046 0.459-0.086 0.919-0.132 1.378-0.064 0.635-0.131 1.269-0.195 1.904-0.046 0.453-0.086 0.907-0.132 1.361-0.064 0.64-0.132 1.28-0.196 1.921-0.046 0.454-0.086 0.908-0.132 1.361-0.064 0.64-0.132 1.28-0.196 1.921-0.047 0.471-0.088 0.942-0.135 1.412-0.062 0.618-0.129 1.235-0.19 1.853-0.048 0.476-0.087 0.954-0.138 1.429-0.062 0.566-0.105 1.135-0.206 1.694-0.168 0.933-1.013 1.775-1.905 1.94-0.213 0.039-0.432 0.064-0.648 0.065-2.092 0.005-4.184 0.003-6.276 0.003v0zM2.947 11.176c0.015 0.122 0.030 0.222 0.040 0.323 0.089 0.89 0.176 1.78 0.264 2.67 0.049 0.499 0.094 0.998 0.145 1.497 0.047 0.459 0.103 0.917 0.149 1.376 0.061 0.618 0.112 1.237 0.174 1.854 0.081 0.81 0.172 1.62 0.253 2.43 0.082 0.816 0.154 1.633 0.236 2.45 0.081 0.804 0.172 1.608 0.254 2.413 0.092 0.895 0.192 1.79 0.262 2.687 0.073 0.929 0.804 1.612 1.709 1.607 3.779-0.022 7.558-0.009 11.336-0.009 0.409 0 0.819 0.002 1.228-0 0.739-0.004 1.372-0.55 1.5-1.31 0.057-0.336 0.082-0.677 0.119-1.017 0.050-0.459 0.099-0.917 0.145-1.376 0.063-0.629 0.121-1.259 0.184-1.888 0.046-0.459 0.098-0.917 0.144-1.376 0.063-0.629 0.121-1.259 0.184-1.888 0.046-0.453 0.098-0.906 0.143-1.36 0.064-0.64 0.124-1.281 0.188-1.922 0.045-0.448 0.095-0.895 0.14-1.343 0.063-0.635 0.122-1.27 0.185-1.905 0.046-0.459 0.096-0.918 0.143-1.377 0.072-0.708 0.145-1.416 0.215-2.125 0.013-0.133 0.014-0.268 0.021-0.41l-19.363 0zM12.648 10.106c3.566 0 7.132-0.004 10.698 0.005 0.396 0.001 0.569-0.273 0.567-0.602-0.009-1.034-0.003-2.068-0.004-3.102-0-0.397-0.195-0.599-0.576-0.599-7.132-0-14.264-0-21.396 0-0.375 0-0.576 0.209-0.577 0.603-0.002 1.034-0.002 2.068 0 3.102 0.001 0.406 0.184 0.593 0.573 0.593 3.571 0 7.143 0 10.714 0l0-0zM8.999 4.743h7.268c-0.031-0.056-0.050-0.096-0.072-0.134-0.336-0.553-0.674-1.103-1.006-1.658-0.146-0.245-0.345-0.359-0.622-0.358-1.168 0.005-2.337 0.010-3.505-0.001-0.793-0.007-0.791 0.053-1.162 0.672-0.292 0.486-0.589 0.969-0.899 1.479l-0-0z"></path>
<path fill="#e84646" style="fill: var(--color1, #e84646)" d="M12.142 19.752c0-1.793 0-3.587 0-5.38 0-0.246 0.145-0.445 0.352-0.492 0.255-0.057 0.491 0.038 0.586 0.255 0.042 0.095 0.064 0.208 0.065 0.312 0.003 3.536 0.003 7.071 0.002 10.607 0 0.304-0.148 0.523-0.374 0.569-0.281 0.057-0.514-0.058-0.603-0.309-0.026-0.072-0.027-0.156-0.027-0.234-0.001-1.776-0.001-3.553-0.001-5.329h0z"></path>
<path fill="#e84646" style="fill: var(--color1, #e84646)" d="M8.536 25.628c-0.282-0.001-0.44-0.18-0.453-0.481-0.038-0.884-0.085-1.767-0.127-2.65-0.025-0.519-0.048-1.038-0.073-1.556-0.051-1.054-0.105-2.109-0.157-3.163-0.023-0.462-0.044-0.924-0.067-1.385-0.032-0.667-0.065-1.333-0.098-2-0.012-0.254 0.186-0.451 0.48-0.475 0.253-0.020 0.47 0.152 0.483 0.398 0.038 0.729 0.067 1.459 0.104 2.189 0.050 0.98 0.104 1.96 0.154 2.94 0.025 0.479 0.045 0.958 0.069 1.436 0.053 1.111 0.107 2.223 0.161 3.334 0.014 0.285 0.028 0.57 0.037 0.855 0.011 0.317-0.213 0.559-0.513 0.557l-0 0.001z"></path>
<path fill="#e84646" style="fill: var(--color1, #e84646)" d="M16.299 24.777c0.058-1.266 0.114-2.532 0.173-3.798 0.053-1.135 0.107-2.269 0.163-3.404 0.052-1.060 0.106-2.121 0.159-3.181 0.014-0.283 0.216-0.475 0.499-0.474 0.246 0.001 0.45 0.196 0.448 0.466-0.004 0.468-0.025 0.936-0.047 1.403-0.036 0.787-0.079 1.574-0.119 2.36-0.065 1.288-0.13 2.577-0.193 3.865-0.027 0.559-0.047 1.118-0.072 1.677-0.021 0.49-0.040 0.981-0.068 1.471-0.019 0.318-0.247 0.492-0.586 0.463-0.236-0.020-0.393-0.24-0.376-0.526 0.007-0.108 0.014-0.216 0.022-0.325-0.001 0-0.002 0-0.002 0v0z"></path>
<path fill="#e84646" style="fill: var(--color1, #e84646)" d="M10.58 28.336c1.185 0 2.369-0.001 3.554 0 0.297 0 0.448 0.108 0.522 0.363 0.102 0.351-0.11 0.666-0.469 0.696-0.032 0.003-0.066 0.001-0.098 0.001-2.331 0-4.662 0-6.993 0-0.21 0-0.406-0.043-0.522-0.25-0.173-0.31-0.042-0.815 0.436-0.813 1.19 0.006 2.38 0.002 3.57 0.002z"></path>
<path fill="#e84646" style="fill: var(--color1, #e84646)" d="M17.247 28.336c0.338 0 0.676-0.003 1.015 0.001 0.311 0.003 0.512 0.204 0.522 0.51 0.009 0.288-0.204 0.54-0.499 0.545-0.693 0.011-1.386 0.012-2.079 0-0.304-0.005-0.499-0.243-0.49-0.546 0.010-0.318 0.196-0.505 0.516-0.509 0.338-0.004 0.676-0.001 1.015-0.001v-0.001z"></path>
<path fill="#e84646" style="fill: var(--color1, #e84646)" d="M3.934 7.976c0 0.171 0.006 0.343-0.001 0.513-0.013 0.331-0.217 0.542-0.514 0.541-0.299-0.001-0.502-0.211-0.51-0.544-0.008-0.348-0.008-0.696 0-1.044 0.008-0.336 0.207-0.535 0.513-0.534 0.305 0.001 0.499 0.202 0.51 0.538 0.006 0.176 0.001 0.354 0.001 0.53h0z"></path>
<path fill="#e84646" style="fill: var(--color1, #e84646)" d="M22.357 7.97c0 0.183 0.004 0.366-0.001 0.548-0.009 0.311-0.209 0.512-0.501 0.512-0.294 0-0.495-0.201-0.5-0.513-0.006-0.366-0.006-0.731 0-1.097 0.005-0.326 0.198-0.516 0.509-0.512 0.3 0.003 0.485 0.193 0.492 0.513 0.004 0.183 0.001 0.366 0.001 0.548z"></path>
<path fill="#e84646" style="fill: var(--color1, #e84646)" d="M5.481 7.954c0-0.171-0.002-0.342 0-0.513 0.005-0.33 0.177-0.524 0.47-0.533 0.314-0.010 0.527 0.175 0.539 0.505 0.014 0.37 0.014 0.742-0.001 1.111-0.013 0.317-0.241 0.52-0.528 0.506-0.303-0.015-0.476-0.209-0.481-0.545-0.003-0.177-0-0.354-0-0.53l0 0z"></path>
<path fill="#e84646" style="fill: var(--color1, #e84646)" d="M10.604 7.952c0-0.188-0.002-0.376 0.001-0.564 0.004-0.253 0.17-0.447 0.404-0.476 0.305-0.038 0.546 0.092 0.565 0.369 0.031 0.452 0.010 0.907 0.011 1.361 0 0.005-0.002 0.011-0.004 0.017-0.057 0.242-0.269 0.393-0.516 0.37-0.274-0.026-0.454-0.211-0.459-0.478-0.004-0.199-0.001-0.399-0.001-0.599z"></path>
<path fill="#e84646" style="fill: var(--color1, #e84646)" d="M13.674 7.959c0-0.171-0.002-0.342 0-0.513 0.005-0.332 0.175-0.527 0.466-0.537 0.315-0.012 0.529 0.171 0.543 0.5 0.015 0.37 0.014 0.741 0 1.111-0.012 0.316-0.237 0.521-0.525 0.51-0.302-0.011-0.479-0.207-0.485-0.541-0.003-0.177-0.001-0.354-0.001-0.53h0.001z"></path>
<path fill="#e84646" style="fill: var(--color1, #e84646)" d="M18.797 7.959c0-0.194-0.003-0.388 0.001-0.581 0.005-0.249 0.178-0.441 0.414-0.466 0.3-0.032 0.535 0.094 0.554 0.363 0.031 0.452 0.011 0.907 0.013 1.361 0 0.011-0.004 0.022-0.007 0.033-0.058 0.236-0.279 0.388-0.524 0.359-0.268-0.032-0.444-0.213-0.449-0.471-0.004-0.199-0.001-0.399-0.001-0.599l0 0z"></path>
<path fill="#e84646" style="fill: var(--color1, #e84646)" d="M9.065 7.974c-0.014 0.227-0.011 0.456-0.047 0.679-0.042 0.255-0.274 0.406-0.525 0.375-0.278-0.034-0.445-0.215-0.447-0.488-0.002-0.365 0.012-0.73-0.005-1.095-0.015-0.329 0.228-0.536 0.467-0.539 0.325-0.004 0.525 0.177 0.541 0.52 0.009 0.182 0.002 0.365 0.002 0.547 0.005 0 0.009 0.001 0.014 0.001z"></path>
<path fill="#e84646" style="fill: var(--color1, #e84646)" d="M16.238 7.957c0-0.171 0.010-0.343-0.002-0.513-0.024-0.319 0.212-0.517 0.417-0.535 0.316-0.028 0.544 0.104 0.567 0.417 0.032 0.434 0.024 0.876-0.009 1.31-0.020 0.27-0.268 0.423-0.526 0.391-0.284-0.035-0.444-0.217-0.447-0.506 0-0.011 0-0.023 0-0.034 0-0.177 0-0.354 0-0.53v0z"></path>
</symbol>
<symbol id="icon-plus" viewBox="0 0 30 32">
<path fill="#fff" style="fill: var(--color1, #fff)" d="M17.136 3.423c0-1.262-1.023-2.286-2.286-2.286s-2.286 1.023-2.286 2.286v10.291h-10.29c-1.262 0-2.286 1.023-2.286 2.286s1.023 2.286 2.286 2.286h10.29v10.291c0 1.262 1.023 2.286 2.286 2.286s2.286-1.023 2.286-2.286v-10.291h10.292c1.262 0 2.286-1.023 2.286-2.286s-1.023-2.286-2.286-2.286h-10.292v-10.291z"></path>
</symbol>
<symbol id="icon-pencil" viewBox="0 0 32 32">
<path d="M27 0c2.761 0 5 2.239 5 5 0 1.126-0.372 2.164-1 3l-2 2-7-7 2-2c0.836-0.628 1.874-1 3-1zM2 23l-2 9 9-2 18.5-18.5-7-7-18.5 18.5zM22.362 11.362l-14 14-1.724-1.724 14-14 1.724 1.724z" fill="red"></path>
</symbol>
<symbol id="icon-check" viewBox="0 0 30 32">
<path fill="#0fb600" style="fill: var(--color2, #0fb600)" d="M15.597 31.526c-8.097 0.008-14.713-6.706-14.721-14.939-0.008-8.323 6.561-15.046 14.713-15.058 8.173-0.012 14.791 6.722 14.772 15.032-0.019 8.29-6.596 14.956-14.765 14.964h0.001zM15.602 28.53c6.538-0.004 11.814-5.377 11.81-12.026-0.004-6.597-5.316-11.991-11.792-11.975-6.526 0.016-11.81 5.396-11.794 12.008 0.016 6.623 5.293 11.996 11.775 11.992v0.001z"></path>
<path fill="#0fb600" style="fill: var(--color2, #0fb600)" d="M14.034 18.6c0.573-0.771 1.126-1.514 1.679-2.259 1.284-1.728 2.57-3.455 3.851-5.187 0.5-0.677 1.387-0.841 2.050-0.366 0.68 0.489 0.855 1.413 0.358 2.111-0.594 0.835-1.222 1.645-1.835 2.464-1.597 2.134-3.193 4.269-4.792 6.401-0.777 1.036-1.817 1.041-2.613 0.007-1.137-1.475-2.272-2.95-3.399-4.432-0.569-0.748-0.427-1.713 0.305-2.216 0.669-0.458 1.486-0.319 2.023 0.373 0.707 0.91 1.396 1.834 2.093 2.751 0.083 0.108 0.17 0.213 0.281 0.351v0.003z"></path>
</symbol>
<symbol id="icon-check-yellow" viewBox="0 0 32 32">
<path fill="none" stroke="#f6d423" style="stroke: var(--color1, #f6d423)" stroke-linejoin="miter" stroke-linecap="butt" stroke-miterlimit="4" stroke-width="2.4615" d="M30.769 16c0 8.157-6.612 14.769-14.769 14.769s-14.769-6.612-14.769-14.769c0-8.157 6.612-14.769 14.769-14.769s14.769 6.612 14.769 14.769z"></path>
<path fill="none" stroke="#f6d423" style="stroke: var(--color1, #f6d423)" stroke-linejoin="miter" stroke-linecap="square" stroke-miterlimit="4" stroke-width="2.4615" d="M23.385 11.077l-9.846 9.846"></path>
<path fill="none" stroke="#f6d423" style="stroke: var(--color1, #f6d423)" stroke-linejoin="miter" stroke-linecap="square" stroke-miterlimit="4" stroke-width="2.4615" d="M13.538 20.923l-4.923-4.923"></path>
</symbol>
<symbol id="icon-red-cross" viewBox="0 0 32 32">
<path fill="#ffe4e3" style="fill: var(--color5, #ffe4e3)" d="M31.786 15.893c0 8.777-7.116 15.893-15.893 15.893s-15.893-7.116-15.893-15.893c0-8.777 7.115-15.893 15.893-15.893s15.893 7.115 15.893 15.893z"></path>
<path fill="none" stroke="#e84646" style="stroke: var(--color6, #e84646)" stroke-linejoin="miter" stroke-linecap="square" stroke-miterlimit="4" stroke-width="3.3684" d="M23.228 8.558l-14.696 14.696"></path>
<path fill="none" stroke="#e84646" style="stroke: var(--color6, #e84646)" stroke-linejoin="miter" stroke-linecap="square" stroke-miterlimit="4" stroke-width="3.3684" d="M23.254 23.254l-14.696-14.696"></path>
</symbol>
<symbol id="icon-green-mediaCheck" viewBox="0 0 34 32">
<path fill="#d1f5e4" style="fill: var(--color3, #d1f5e4)" d="M33.256 15.893c0 8.777-7.116 15.893-15.893 15.893s-15.893-7.116-15.893-15.893c0-8.777 7.116-15.893 15.893-15.893s15.893 7.115 15.893 15.893z"></path>
<path fill="none" stroke="#71cba3" style="stroke: var(--color4, #71cba3)" stroke-linejoin="miter" stroke-linecap="square" stroke-miterlimit="4" stroke-width="3.3684" d="M24.698 11.002l-9.78 9.78"></path>
<path fill="none" stroke="#71cba3" style="stroke: var(--color4, #71cba3)" stroke-linejoin="miter" stroke-linecap="square" stroke-miterlimit="4" stroke-width="3.3684" d="M14.918 20.784l-4.89-4.89"></path>
</symbol>
<symbol id="icon-gold-crown" viewBox="0 0 34 32">
<path fill="#ffd600" style="fill: var(--color1, #ffd600)" opacity="0.1" d="M33.042 15.893c0 8.777-7.116 15.893-15.893 15.893s-15.893-7.116-15.893-15.893c0-8.777 7.116-15.893 15.893-15.893s15.893 7.115 15.893 15.893z"></path>
<path fill="none" stroke="#e7c201" style="stroke: var(--color2, #e7c201)" stroke-linejoin="round" stroke-linecap="round" stroke-miterlimit="4" stroke-width="2.1053" d="M16.842 8.421l3.743 6.737 4.678-4.491-1.871 11.228h-13.099l-1.871-11.228 4.678 4.491 3.743-6.737z"></path>
</symbol>
<symbol id="icon-addCard" viewBox="0 0 32 32">
<path fill="none" stroke="#2e65f3" style="stroke: var(--color1, #2e65f3)" stroke-linejoin="miter" stroke-linecap="butt" stroke-miterlimit="10" stroke-width="1.6" d="M16 28c6.627 0 12-5.373 12-12s-5.373-12-12-12c-6.627 0-12 5.373-12 12s5.373 12 12 12z"></path>
<path fill="none" stroke="#2e65f3" style="stroke: var(--color1, #2e65f3)" stroke-linejoin="round" stroke-linecap="round" stroke-miterlimit="4" stroke-width="1.6" d="M11 16h10"></path>
<path fill="none" stroke="#2e65f3" style="stroke: var(--color1, #2e65f3)" stroke-linejoin="round" stroke-linecap="round" stroke-miterlimit="4" stroke-width="1.6" d="M16 11v10"></path>
</symbol>
<symbol id="icon-layout" viewBox="0 0 31 32">
<path fill="#302eff" style="fill: var(--color1, #302eff)" d="M26.396 20.931l-11.036 6.438-11.036-6.438c-0.22-0.128-0.482-0.164-0.728-0.099s-0.457 0.225-0.585 0.445c-0.128 0.22-0.164 0.482-0.099 0.728s0.225 0.457 0.445 0.585l11.52 6.72c0.147 0.086 0.314 0.131 0.484 0.131s0.337-0.045 0.484-0.131l11.52-6.72c0.109-0.064 0.204-0.148 0.281-0.248s0.132-0.215 0.164-0.337c0.032-0.122 0.040-0.249 0.023-0.374s-0.058-0.245-0.122-0.354c-0.064-0.109-0.148-0.204-0.248-0.281s-0.215-0.132-0.337-0.164c-0.122-0.032-0.249-0.040-0.374-0.023s-0.245 0.058-0.354 0.122z"></path>
<path fill="#302eff" style="fill: var(--color1, #302eff)" d="M26.396 15.171l-11.036 6.438-11.036-6.438c-0.22-0.128-0.482-0.164-0.728-0.099s-0.457 0.225-0.585 0.445c-0.128 0.22-0.164 0.482-0.099 0.728s0.225 0.457 0.445 0.585l11.52 6.72c0.147 0.086 0.314 0.131 0.484 0.131s0.337-0.045 0.484-0.131l11.52-6.72c0.22-0.128 0.38-0.339 0.445-0.585s0.029-0.508-0.099-0.728c-0.128-0.22-0.339-0.38-0.585-0.445s-0.508-0.029-0.728 0.099z"></path>
<path fill="#302eff" style="fill: var(--color1, #302eff)" d="M3.356 11.069l11.52 6.72c0.147 0.086 0.314 0.131 0.484 0.131s0.337-0.045 0.484-0.131l11.52-6.72c0.145-0.085 0.265-0.206 0.349-0.351s0.128-0.31 0.128-0.478-0.044-0.333-0.128-0.478c-0.084-0.146-0.204-0.267-0.349-0.351l-11.52-6.72c-0.147-0.086-0.314-0.131-0.484-0.131s-0.337 0.045-0.484 0.131l-11.52 6.72c-0.145 0.085-0.265 0.206-0.349 0.351s-0.128 0.31-0.128 0.478c0 0.168 0.044 0.333 0.128 0.478s0.204 0.267 0.349 0.351z"></path>
</symbol>
<symbol id="icon-brush" viewBox="0 0 31 32">
<path fill="#2e65f3" style="fill: var(--color1, #2e65f3)" d="M27.675 3.685c-0.721-0.719-1.697-1.123-2.715-1.123s-1.994 0.404-2.715 1.123c-0.012 0.012-0.024 0.025-0.036 0.038l-6.588 7.341-1.104-1.104c-0.54-0.54-1.273-0.844-2.036-0.844s-1.496 0.303-2.036 0.844l-9.202 9.202c-0.18 0.18-0.281 0.424-0.281 0.679s0.101 0.499 0.281 0.679l9.6 9.6c0.18 0.18 0.424 0.281 0.679 0.281s0.499-0.101 0.679-0.281l9.202-9.202c0.54-0.54 0.843-1.273 0.843-2.036s-0.303-1.496-0.843-2.036l-1.104-1.104 7.341-6.588c0.013-0.012 0.025-0.023 0.038-0.036 0.719-0.721 1.123-1.697 1.123-2.715s-0.404-1.995-1.123-2.715zM11.52 28.083l-1.695-1.695 3.064-3.064c0.18-0.18 0.281-0.424 0.281-0.679s-0.101-0.499-0.281-0.679-0.424-0.281-0.678-0.281c-0.255-0-0.499 0.101-0.679 0.281l-3.064 3.064-2.002-2.002 3.064-3.064c0.18-0.18 0.281-0.424 0.281-0.679s-0.101-0.499-0.281-0.679-0.424-0.281-0.678-0.281c-0.255-0-0.499 0.101-0.679 0.281l-3.064 3.064-1.83-1.83 5.362-5.362 8.242 8.242-5.362 5.362z"></path>
</symbol>
<symbol id="icon-rocket" viewBox="0 0 32 32">
<path fill="#2e65f3" style="fill: var(--color1, #2e65f3)" d="M18 27h-4c-0.265 0-0.52 0.105-0.707 0.293s-0.293 0.442-0.293 0.707 0.105 0.52 0.293 0.707c0.188 0.188 0.442 0.293 0.707 0.293h4c0.265 0 0.52-0.105 0.707-0.293s0.293-0.442 0.293-0.707-0.105-0.52-0.293-0.707c-0.187-0.188-0.442-0.293-0.707-0.293z"></path>
<path fill="#2e65f3" style="fill: var(--color1, #2e65f3)" d="M27.453 17.982l-3.78-4.535c-0.121-1.494-0.457-2.963-0.998-4.36-1.452-3.777-4.019-6.25-5.421-7.388-0.355-0.286-0.797-0.443-1.253-0.444s-0.899 0.152-1.256 0.436c-1.419 1.137-4.020 3.609-5.487 7.386-0.559 1.43-0.9 2.935-1.012 4.465l-3.701 4.441c-0.195 0.235-0.334 0.512-0.406 0.809s-0.076 0.607-0.010 0.905l1.545 6.954c0.073 0.332 0.23 0.639 0.455 0.894s0.512 0.447 0.832 0.56c0.321 0.113 0.665 0.142 0.999 0.085s0.65-0.199 0.915-0.411l3.473-2.779h7.299l3.473 2.779c0.353 0.284 0.792 0.439 1.246 0.44 0.228-0 0.454-0.039 0.668-0.115 0.321-0.112 0.608-0.304 0.833-0.558s0.382-0.562 0.455-0.894l1.545-6.954c0.065-0.299 0.062-0.608-0.010-0.905s-0.211-0.574-0.406-0.809zM7.628 26.217l-1.545-6.954 2.241-2.689c0.284 2.336 1.082 4.727 2.393 7.173l-3.088 2.47zM16 13.5c-0.297 0-0.587-0.088-0.833-0.253s-0.439-0.399-0.552-0.673c-0.114-0.274-0.143-0.576-0.085-0.867s0.201-0.558 0.411-0.768c0.21-0.21 0.477-0.353 0.768-0.411s0.593-0.028 0.867 0.085c0.274 0.114 0.508 0.306 0.673 0.552s0.253 0.537 0.253 0.833c0 0.398-0.158 0.779-0.439 1.061s-0.663 0.439-1.061 0.439zM24.371 26.217l-3.094-2.475c1.294-2.463 2.075-4.874 2.343-7.235l2.296 2.755-1.545 6.954z"></path>
</symbol>
<symbol id="icon-palette" viewBox="0 0 31 32">
<path fill="#2e65f3" style="fill: var(--color1, #2e65f3)" d="M24.093 7.107c-2.324-2.301-5.463-3.59-8.733-3.587-0.043 0-0.085 0-0.128 0.001-2.933 0.031-5.762 1.093-7.99 3.002s-3.712 4.54-4.193 7.434c-0.481 2.894 0.073 5.864 1.564 8.391s3.824 4.446 6.59 5.424c0.579 0.204 1.199 0.267 1.807 0.182s1.187-0.314 1.688-0.669 0.91-0.825 1.192-1.37c0.282-0.546 0.429-1.151 0.429-1.765v-0.468c0.001-0.509 0.203-0.997 0.563-1.357s0.848-0.562 1.357-0.563h5.545c0.871 0.004 1.717-0.29 2.398-0.832s1.156-1.302 1.346-2.152c0.214-0.946 0.318-1.913 0.31-2.882-0.012-1.64-0.349-3.261-0.992-4.769s-1.58-2.874-2.755-4.017zM10.676 20.367c-0.247 0.142-0.53 0.208-0.814 0.19s-0.556-0.121-0.782-0.295c-0.226-0.173-0.395-0.41-0.487-0.68s-0.101-0.561-0.027-0.836c0.074-0.275 0.227-0.522 0.441-0.71s0.479-0.308 0.761-0.345c0.282-0.037 0.569 0.010 0.825 0.136s0.468 0.325 0.61 0.572c0.095 0.164 0.156 0.345 0.181 0.532s0.012 0.378-0.037 0.561-0.133 0.354-0.248 0.504c-0.115 0.15-0.259 0.276-0.422 0.371zM11.203 13.6c-0.142 0.247-0.355 0.446-0.61 0.572s-0.542 0.173-0.825 0.136c-0.282-0.037-0.547-0.157-0.761-0.345s-0.368-0.435-0.441-0.71c-0.074-0.275-0.064-0.566 0.027-0.836s0.261-0.506 0.487-0.68c0.226-0.173 0.498-0.276 0.782-0.294s0.568 0.047 0.814 0.19c0.164 0.095 0.307 0.22 0.422 0.37s0.2 0.321 0.248 0.504c0.049 0.183 0.061 0.373 0.037 0.561s-0.086 0.368-0.181 0.532zM15.36 11.2c-0.285 0-0.563-0.084-0.8-0.243s-0.421-0.383-0.53-0.646c-0.109-0.263-0.138-0.553-0.082-0.832s0.193-0.536 0.394-0.737c0.201-0.201 0.458-0.339 0.737-0.394s0.569-0.027 0.832 0.082c0.263 0.109 0.488 0.294 0.646 0.53s0.243 0.515 0.243 0.8c0 0.382-0.152 0.748-0.422 1.018s-0.636 0.422-1.018 0.422zM21.484 14.127c-0.247 0.142-0.53 0.208-0.814 0.19s-0.556-0.121-0.782-0.295c-0.226-0.173-0.395-0.41-0.487-0.68s-0.101-0.56-0.027-0.836c0.074-0.275 0.227-0.522 0.441-0.71s0.479-0.308 0.762-0.345c0.282-0.037 0.569 0.010 0.825 0.136s0.468 0.325 0.61 0.572c0.095 0.164 0.156 0.345 0.181 0.532s0.012 0.378-0.037 0.561c-0.049 0.183-0.133 0.354-0.249 0.504s-0.259 0.276-0.422 0.371z"></path>
</symbol>
<symbol id="icon-pen" viewBox="0 0 31 32">
<path fill="#2e65f3" style="fill: var(--color1, #2e65f3)" d="M27.842 11.762l-8.242-8.242c-0.36-0.359-0.849-0.561-1.358-0.561s-0.997 0.202-1.358 0.561l-3.014 3.014-6.966 2.612c-0.315 0.119-0.594 0.318-0.808 0.578s-0.356 0.572-0.412 0.904l-2.492 14.952c-0.017 0.1-0.001 0.203 0.044 0.294s0.119 0.165 0.209 0.212c0.090 0.046 0.193 0.063 0.294 0.047s0.193-0.063 0.265-0.135l6.61-6.61c-0.475-0.806-0.64-1.758-0.464-2.677s0.682-1.742 1.422-2.315 1.663-0.857 2.597-0.797c0.934 0.059 1.814 0.457 2.476 1.119s1.059 1.542 1.118 2.476c0.059 0.934-0.225 1.857-0.798 2.597s-1.397 1.245-2.316 1.421-1.871 0.011-2.677-0.465l-6.611 6.611c-0.072 0.072-0.119 0.165-0.135 0.265s0.001 0.203 0.047 0.294c0.047 0.090 0.121 0.164 0.211 0.209s0.194 0.061 0.294 0.045l14.954-2.492c0.332-0.056 0.644-0.198 0.904-0.412s0.459-0.493 0.578-0.808l2.612-6.966 3.014-3.014c0.178-0.178 0.32-0.39 0.416-0.623s0.146-0.483 0.146-0.735c0-0.252-0.050-0.502-0.146-0.735s-0.238-0.445-0.416-0.623v0zM24.002 15.602l-8.242-8.242 2.482-2.482 8.242 8.242-2.482 2.482z"></path>
<path fill="#2e65f3" style="fill: var(--color1, #2e65f3)" d="M13.92 19.36c1.060 0 1.92-0.86 1.92-1.92s-0.86-1.92-1.92-1.92c-1.060 0-1.92 0.86-1.92 1.92s0.86 1.92 1.92 1.92z"></path>
</symbol>
<symbol id="icon-box" viewBox="0 0 32 32">
<path fill="#2e65f3" style="fill: var(--color1, #2e65f3)" d="M29 8v-2c-0.001-0.53-0.211-1.039-0.586-1.414s-0.883-0.586-1.414-0.586h-22c-0.53 0.001-1.039 0.212-1.414 0.586s-0.586 0.883-0.586 1.414v2c0.001 0.53 0.212 1.039 0.586 1.414s0.883 0.586 1.414 0.586v12h-1c-0.265 0-0.52 0.105-0.707 0.293s-0.293 0.442-0.293 0.707 0.105 0.52 0.293 0.707c0.188 0.188 0.442 0.293 0.707 0.293h11v2.172c-0.667 0.236-1.23 0.7-1.588 1.311s-0.489 1.328-0.369 2.025 0.482 1.33 1.023 1.786c0.541 0.456 1.226 0.706 1.934 0.706s1.393-0.25 1.934-0.706c0.541-0.456 0.903-1.089 1.023-1.786s-0.011-1.415-0.369-2.025c-0.358-0.61-0.92-1.075-1.588-1.311v-2.172h11c0.265 0 0.52-0.105 0.707-0.293s0.293-0.442 0.293-0.707-0.105-0.52-0.293-0.707c-0.187-0.188-0.442-0.293-0.707-0.293h-1v-12c0.53-0.001 1.039-0.212 1.414-0.586s0.586-0.883 0.586-1.414zM13 18c0 0.265-0.105 0.52-0.293 0.707s-0.442 0.293-0.707 0.293-0.52-0.105-0.707-0.293c-0.188-0.187-0.293-0.442-0.293-0.707v-2c0-0.265 0.105-0.52 0.293-0.707s0.442-0.293 0.707-0.293 0.52 0.105 0.707 0.293c0.188 0.187 0.293 0.442 0.293 0.707v2zM16 30c-0.198 0-0.391-0.059-0.556-0.169s-0.293-0.266-0.368-0.449c-0.076-0.183-0.095-0.384-0.057-0.578s0.134-0.372 0.274-0.512 0.318-0.235 0.512-0.274c0.194-0.039 0.395-0.019 0.578 0.057s0.339 0.204 0.449 0.368c0.11 0.165 0.169 0.358 0.169 0.556-0 0.265-0.106 0.519-0.293 0.707s-0.442 0.293-0.707 0.293zM17 18c0 0.265-0.105 0.52-0.293 0.707s-0.442 0.293-0.707 0.293-0.52-0.105-0.707-0.293c-0.188-0.187-0.293-0.442-0.293-0.707v-3c0-0.265 0.105-0.52 0.293-0.707s0.442-0.293 0.707-0.293 0.52 0.105 0.707 0.293c0.188 0.187 0.293 0.442 0.293 0.707v3zM21 18c0 0.265-0.105 0.52-0.293 0.707s-0.442 0.293-0.707 0.293-0.52-0.105-0.707-0.293c-0.188-0.187-0.293-0.442-0.293-0.707v-4c0-0.265 0.105-0.52 0.293-0.707s0.442-0.293 0.707-0.293 0.52 0.105 0.707 0.293c0.188 0.188 0.293 0.442 0.293 0.707v4zM5 8v-2h22l0.001 2h-22.001z"></path>
</symbol>
<symbol id="icon-main-plus" viewBox="0 0 32 32">
<path fill="#fff" style="fill: var(--color1, #fff)" d="M32 16c0 8.837-7.163 16-16 16s-16-7.163-16-16c0-8.837 7.163-16 16-16s16 7.163 16 16z"></path>
<path fill="#6ca5fc" style="fill: var(--color2, #6ca5fc)" d="M17.148 10.667c0-0.589-0.478-1.067-1.067-1.067s-1.067 0.478-1.067 1.067v4.349h-4.348c-0.589 0-1.067 0.478-1.067 1.067s0.478 1.067 1.067 1.067h4.348v4.349c0 0.589 0.478 1.067 1.067 1.067s1.067-0.478 1.067-1.067v-4.349h4.35c0.589 0 1.067-0.478 1.067-1.067s-0.478-1.067-1.067-1.067h-4.35v-4.349z"></path>
</symbol>
<symbol id="icon-credit-card" viewBox="0 0 40 32">
<path fill="#fff" style="fill: var(--color1, #fff)" d="M39.478 7.421v2.681h-38.609v-2.681c0-4.29 2.145-6.435 6.435-6.435h25.739c4.29 0 6.435 2.145 6.435 6.435zM39.478 13.319v11.261c0 4.29-2.145 6.435-6.435 6.435h-25.739c-4.29 0-6.435-2.145-6.435-6.435v-11.261h38.609zM17.493 22.435c0-0.888-0.721-1.609-1.609-1.609h-6.435c-0.888 0-1.609 0.721-1.609 1.609s0.721 1.609 1.609 1.609h6.435c0.888 0 1.609-0.721 1.609-1.609z"></path>
</symbol>
<symbol id="icon-Line" viewBox="0 0 147 32">
<path fill="#3334ff" style="fill: var(--color1, #3334ff)" d="M0.604 16l15.396 15.396 15.396-15.396-15.396-15.396-15.396 15.396zM146.063 16l-15.396-15.396-15.396 15.396 15.396 15.396 15.396-15.396zM16 18.667h114.667v-5.333h-114.667v5.333z"></path>
</symbol>
<symbol id="icon-white-bin" viewBox="0 0 32 32">
<path fill="none" stroke="#fff" style="stroke: var(--color1, #fff)" stroke-linejoin="miter" stroke-linecap="butt" stroke-miterlimit="4" stroke-width="2.4615" d="M30.769 16c0 8.157-6.612 14.769-14.769 14.769s-14.769-6.612-14.769-14.769c0-8.157 6.612-14.769 14.769-14.769s14.769 6.612 14.769 14.769z"></path>
<path fill="none" stroke="#fff" style="stroke: var(--color1, #fff)" stroke-linejoin="miter" stroke-linecap="round" stroke-miterlimit="4" stroke-width="2.0923" d="M10.065 11.077v11.847c0 0.934 0.758 1.692 1.692 1.692h8.488c0.934 0 1.692-0.758 1.692-1.692v-11.847M7.385 11.077h17.231"></path>
<path fill="none" stroke="#fff" style="stroke: var(--color1, #fff)" stroke-linejoin="miter" stroke-linecap="round" stroke-miterlimit="4" stroke-width="2.0923" d="M11.077 9.846v-0.721c0-0.961 0.779-1.741 1.741-1.741h6.365c0.961 0 1.741 0.779 1.741 1.741v0.721"></path>
</symbol>
</defs>
</svg>
